{
  "accessors": [
    {
      "bufferView": 2,
      "componentType": 5126,
      "count": 42012,
      "max": [
        1446.97314453125,
        996.2786865234375,
        1240.0
      ],
      "min": [
        430.5953063964844,
        441.51043701171875,
        100.0
      ],
      "type": "VEC3"
    },
    {
      "bufferView": 2,
      "byteOffset": 504144,
      "componentType": 5126,
      "count": 42012,
      "max": [
        0.9999921917915344,
        0.9999818205833435,
        1.0
      ],
      "min": [
        -0.9999892711639404,
        -0.9999803900718689,
        -1.0
      ],
      "type": "VEC3"
    },
    {
      "bufferView": 1,
      "componentType": 5126,
      "count": 42012,
      "max": [
        0.9949029684066772,
        0.9950000047683716
      ],
      "min": [
        0.004999999888241291,
        0.004999999888241291
      ],
      "type": "VEC2"
    },
    {
      "bufferView": 1,
      "byteOffset": 336096,
      "componentType": 5126,
      "count": 42012,
      "max": [
        0.9949029684066772,
        0.9950000047683716
      ],
      "min": [
        0.004999999888241291,
        0.004999999888241291
      ],
      "type": "VEC2"
    },
    {
      "bufferView": 0,
      "componentType": 5125,
      "count": 162774,
      "type": "SCALAR"
    },
    {
      "bufferView": 2,
      "byteOffset": 1008288,
      "componentType": 5126,
      "count": 1851,
      "max": [
        1452.9056396484375,
        1396.233154296875,
        1240.0
      ],
      "min": [
        17.8260498046875,
        35.4998779296875,
        -1.2540283203125
      ],
      "type": "VEC3"
    },
    {
      "bufferView": 2,
      "byteOffset": 1030500,
      "componentType": 5126,
      "count": 1851,
      "max": [
        0.9999001026153564,
        0.9999271631240845,
        1.0
      ],
      "min": [
        -0.9999210238456726,
        -0.999944269657135,
        -1.0
      ],
      "type": "VEC3"
    },
    {
      "bufferView": 1,
      "byteOffset": 672192,
      "componentType": 5126,
      "count": 1851,
      "max": [
        0.9950000047683716,
        0.9945708513259888
      ],
      "min": [
        0.004999999888241291,
        0.004999999888241291
      ],
      "type": "VEC2"
    },
    {
      "bufferView": 1,
      "byteOffset": 687000,
      "componentType": 5126,
      "count": 1851,
      "max": [
        0.9950000047683716,
        0.9945708513259888
      ],
      "min": [
        0.004999999888241291,
        0.004999999888241291
      ],
      "type": "VEC2"
    },
    {
      "bufferView": 0,
      "byteOffset": 651096,
      "componentType": 5125,
      "count": 2853,
      "type": "SCALAR"
    },
    {
      "bufferView": 2,
      "byteOffset": 1052712,
      "componentType": 5126,
      "count": 920,
      "max": [
        1452.9056396484375,
        1396.233154296875,
        1300.0
      ],
      "min": [
        17.8260498046875,
        35.4998779296875,
        -1.2540283203125
      ],
      "type": "VEC3"
    },
    {
      "bufferView": 2,
      "byteOffset": 1063752,
      "componentType": 5126,
      "count": 920,
      "max": [
        0.9998956918716431,
        0.9999382495880127,
        1.0
      ],
      "min": [
        -0.999891996383667,
        -0.9999455809593201,
        -1.0
      ],
      "type": "VEC3"
    },
    {
      "bufferView": 1,
      "byteOffset": 701808,
      "componentType": 5126,
      "count": 920,
      "max": [
        0.9943320155143738,
        0.9950000047683716
      ],
      "min": [
        0.004999999888241291,
        0.004999999888241291
      ],
      "type": "VEC2"
    },
    {
      "bufferView": 1,
      "byteOffset": 709168,
      "componentType": 5126,
      "count": 920,
      "max": [
        0.9943320155143738,
        0.9950000047683716
      ],
      "min": [
        0.004999999888241291,
        0.004999999888241291
      ],
      "type": "VEC2"
    },
    {
      "bufferView": 0,
      "byteOffset": 662508,
      "componentType": 5125,
      "count": 1398,
      "type": "SCALAR"
    },
    {
      "bufferView": 2,
      "byteOffset": 1074792,
      "componentType": 5126,
      "count": 1387,
      "max": [
        1441.4208984375,
        1396.233154296875,
        1300.0
      ],
      "min": [
        433.14404296875,
        441.6730041503906,
        100.0
      ],
      "type": "VEC3"
    },
    {
      "bufferView": 2,
      "byteOffset": 1091436,
      "componentType": 5126,
      "count": 1387,
      "max": [
        0.9998922944068909,
        0.9999205470085144,
        1.0
      ],
      "min": [
        -0.9999052286148071,
        -0.9999056458473206,
        -1.0
      ],
      "type": "VEC3"
    },
    {
      "bufferView": 1,
      "byteOffset": 716528,
      "componentType": 5126,
      "count": 1387,
      "max": [
        0.9949999451637268,
        0.9948470592498779
      ],
      "min": [
        0.004999999888241291,
        0.004999999888241291
      ],
      "type": "VEC2"
    },
    {
      "bufferView": 1,
      "byteOffset": 727624,
      "componentType": 5126,
      "count": 1387,
      "max": [
        0.9949999451637268,
        0.9948470592498779
      ],
      "min": [
        0.004999999888241291,
        0.004999999888241291
      ],
      "type": "VEC2"
    },
    {
      "bufferView": 0,
      "byteOffset": 668100,
      "componentType": 5125,
      "count": 2193,
      "type": "SCALAR"
    },
    {
      "bufferView": 2,
      "byteOffset": 1108080,
      "componentType": 5126,
      "count": 116,
      "max": [
        1430.4620361328125,
        946.5400390625,
        1240.0
      ],
      "min": [
        75.62384033203125,
        456.51416015625,
        103.702392578125
      ],
      "type": "VEC3"
    },
    {
      "bufferView": 2,
      "byteOffset": 1109472,
      "componentType": 5126,
      "count": 116,
      "max": [
        0.9998904466629028,
        0.999901533126831,
        1.0
      ],
      "min": [
        -0.9998902678489685,
        -0.9999010562896729,
        -1.0
      ],
      "type": "VEC3"
    },
    {
      "bufferView": 1,
      "byteOffset": 738720,
      "componentType": 5126,
      "count": 116,
      "max": [
        0.969545841217041,
        0.9676080346107483
      ],
      "min": [
        0.004999999888241291,
        0.010889487341046333
      ],
      "type": "VEC2"
    },
    {
      "bufferView": 1,
      "byteOffset": 739648,
      "componentType": 5126,
      "count": 116,
      "max": [
        0.969545841217041,
        0.9676080346107483
      ],
      "min": [
        0.004999999888241291,
        0.010889487341046333
      ],
      "type": "VEC2"
    },
    {
      "bufferView": 0,
      "byteOffset": 676872,
      "componentType": 5125,
      "count": 174,
      "type": "SCALAR"
    }
  ],
  "asset": {
    "extras": {
      "author": "fantecboisseau (https://sketchfab.com/fantecboisseau)",
      "license": "CC-BY-4.0 (http://creativecommons.org/licenses/by/4.0/)",
      "source": "https://sketchfab.com/3d-models/vianney-house-2-b45403bf4f7849aebb61f7623c00b714",
      "title": "VIANNEY HOUSE 2"
    },
    "generator": "Sketchfab-12.67.0",
    "version": "2.0"
  },
  "bufferViews": [
    {
      "buffer": 0,
      "byteLength": 677568,
      "name": "floatBufferViews",
      "target": 34963
    },
    {
      "buffer": 0,
      "byteLength": 740576,
      "byteOffset": 677568,
      "byteStride": 8,
      "name": "floatBufferViews",
      "target": 34962
    },
    {
      "buffer": 0,
      "byteLength": 1110864,
      "byteOffset": 1418144,
      "byteStride": 12,
      "name": "floatBufferViews",
      "target": 34962
    }
  ],
  "buffers": [
    {
      "byteLength": 2529008,
      "uri": "scene.bin"
    }
  ],
  "images": [
    {
      "uri": "textures/Object001_mtl_baseColor.jpeg"
    },
    {
      "uri": "textures/Object002_mtl_baseColor.jpeg"
    },
    {
      "uri": "textures/Object003_mtl_baseColor.jpeg"
    },
    {
      "uri": "textures/Object004_mtl_baseColor.jpeg"
    }
  ],
  "materials": [
    {
      "doubleSided": true,
      "name": "Object001_mtl",
      "pbrMetallicRoughness": {
        "baseColorTexture": {
          "index": 0
        },
        "metallicFactor": 0.0,
        "roughnessFactor": 0.6
      }
    },
    {
      "doubleSided": true,
      "name": "Object002_mtl",
      "pbrMetallicRoughness": {
        "baseColorTexture": {
          "index": 1
        },
        "metallicFactor": 0.0,
        "roughnessFactor": 0.6
      }
    },
    {
      "doubleSided": true,
      "name": "Object003_mtl",
      "pbrMetallicRoughness": {
        "baseColorTexture": {
          "index": 2
        },
        "metallicFactor": 0.0,
        "roughnessFactor": 0.6
      }
    },
    {
      "doubleSided": true,
      "name": "Object004_mtl",
      "pbrMetallicRoughness": {
        "baseColorTexture": {
          "index": 3
        },
        "metallicFactor": 0.0,
        "roughnessFactor": 0.6
      }
    },
    {
      "alphaMode": "BLEND",
      "doubleSided": true,
      "name": "BATI.MENUISERIE_VITRE",
      "pbrMetallicRoughness": {
        "baseColorFactor": [
          0.31452859969002595,
          0.27332416595954806,
          0.27332416595954806,
          0.01
        ],
        "metallicFactor": 0.0,
        "roughnessFactor": 0.6
      }
    }
  ],
  "meshes": [
    {
      "name": "Object001_Object001_mtl_0",
      "primitives": [
        {
          "attributes": {
            "NORMAL": 1,
            "POSITION": 0,
            "TEXCOORD_0": 2,
            "TEXCOORD_1": 3
          },
          "indices": 4,
          "material": 0,
          "mode": 4
        }
      ]
    },
    {
      "name": "Object002_Object002_mtl_0",
      "primitives": [
        {
          "attributes": {
            "NORMAL": 6,
            "POSITION": 5,
            "TEXCOORD_0": 7,
            "TEXCOORD_1": 8
          },
          "indices": 9,
          "material": 1,
          "mode": 4
        }
      ]
    },
    {
      "name": "Object003_Object003_mtl_0",
      "primitives": [
        {
          "attributes": {
            "NORMAL": 11,
            "POSITION": 10,
            "TEXCOORD_0": 12,
            "TEXCOORD_1": 13
          },
          "indices": 14,
          "material": 2,
          "mode": 4
        }
      ]
    },
    {
      "name": "Object004_Object004_mtl_0",
      "primitives": [
        {
          "attributes": {
            "NORMAL": 16,
            "POSITION": 15,
            "TEXCOORD_0": 17,
            "TEXCOORD_1": 18
          },
          "indices": 19,
          "material": 3,
          "mode": 4
        }
      ]
    },
    {
      "name": "vitre_BATI.MENUISERIE_VITRE_0",
      "primitives": [
        {
          "attributes": {
            "NORMAL": 21,
            "POSITION": 20,
            "TEXCOORD_0": 22,
            "TEXCOORD_1": 23
          },
          "indices": 24,
          "material": 4,
          "mode": 4
        }
      ]
    }
  ],
  "nodes": [
    {
      "children": [
        1
      ],
      "matrix": [
        1.0,
        0.0,
        0.0,
        0.0,
        0.0,
        2.220446049250313e-16,
        -1.0,
        0.0,
        0.0,
        1.0,
        2.220446049250313e-16,
        0.0,
        0.0,
        0.0,
        0.0,
        1.0
      ],
      "name": "Sketchfab_model"
    },
    {
      "children": [
        2
      ],
      "matrix": [
        1.0,
        0.0,
        0.0,
        0.0,
        0.0,
        0.0,
        1.0,
        0.0,
        0.0,
        -1.0,
        0.0,
        0.0,
        0.0,
        0.0,
        0.0,
        1.0
      ],
      "name": "Enter a title.fbx"
    },
    {
      "children": [
        3,
        6,
        9,
        12,
        15
      ],
      "name": "RootNode"
    },
    {
      "children": [
        4
      ],
      "matrix": [
        1.0,
        0.0,
        0.0,
        0.0,
        0.0,
        2.220446049250313e-16,
        -1.0,
        0.0,
        0.0,
        1.0,
        2.220446049250313e-16,
        0.0,
        735.3658447265625,
        -1.2540283203125,
        -715.8665161132813,
        1.0
      ],
      "name": "Object001"
    },
    {
      "children": [
        5
      ],
      "matrix": [
        1.0,
        0.0,
        -0.0,
        0.0,
        0.0,
        1.0,
        0.0,
        0.0,
        0.0,
        0.0,
        1.0,
        0.0,
        -735.3658447265625,
        -715.8665161132813,
        1.2540283203125,
        1.0
      ],
      "name": "Object_4"
    },
    {
      "mesh": 0,
      "name": "Object001_Object001_mtl_0"
    },
    {
      "children": [
        7
      ],
      "matrix": [
        1.0,
        0.0,
        0.0,
        0.0,
        0.0,
        2.220446049250313e-16,
        -1.0,
        0.0,
        0.0,
        1.0,
        2.220446049250313e-16,
        0.0,
        735.3658447265625,
        -1.2540283203125,
        -715.8665161132813,
        1.0
      ],
      "name": "Object002"
    },
    {
      "children": [
        8
      ],
      "matrix": [
        1.0,
        0.0,
        -0.0,
        0.0,
        0.0,
        1.0,
        0.0,
        0.0,
        0.0,
        0.0,
        1.0,
        0.0,
        -735.3658447265625,
        -715.8665161132813,
        1.2540283203125,
        1.0
      ],
      "name": "Object_7"
    },
    {
      "mesh": 1,
      "name": "Object002_Object002_mtl_0"
    },
    {
      "children": [
        10
      ],
      "matrix": [
        1.0,
        0.0,
        0.0,
        0.0,
        0.0,
        2.220446049250313e-16,
        -1.0,
        0.0,
        0.0,
        1.0,
        2.220446049250313e-16,
        0.0,
        735.3658447265625,
        -1.2540283203125,
        -715.8665161132813,
        1.0
      ],
      "name": "Object003"
    },
    {
      "children": [
        11
      ],
      "matrix": [
        1.0,
        0.0,
        -0.0,
        0.0,
        0.0,
        1.0,
        0.0,
        0.0,
        0.0,
        0.0,
        1.0,
        0.0,
        -735.3658447265625,
        -715.8665161132813,
        1.2540283203125,
        1.0
      ],
      "name": "Object_10"
    },
    {
      "mesh": 2,
      "name": "Object003_Object003_mtl_0"
    },
    {
      "children": [
        13
      ],
      "matrix": [
        1.0,
        0.0,
        0.0,
        0.0,
        0.0,
        2.220446049250313e-16,
        -1.0,
        0.0,
        0.0,
        1.0,
        2.220446049250313e-16,
        0.0,
        735.3658447265625,
        -1.2540283203125,
        -715.8665161132813,
        1.0
      ],
      "name": "Object004"
    },
    {
      "children": [
        14
      ],
      "matrix": [
        1.0,
        0.0,
        -0.0,
        0.0,
        0.0,
        1.0,
        0.0,
        0.0,
        0.0,
        0.0,
        1.0,
        0.0,
        -735.3658447265625,
        -715.8665161132813,
        1.2540283203125,
        1.0
      ],
      "name": "Object_13"
    },
    {
      "mesh": 3,
      "name": "Object004_Object004_mtl_0"
    },
    {
      "children": [
        16
      ],
      "matrix": [
        1.0,
        0.0,
        0.0,
        0.0,
        0.0,
        2.220446049250313e-16,
        -1.0,
        0.0,
        0.0,
        1.0,
        2.220446049250313e-16,
        0.0,
        735.3658447265625,
        -1.2540283203125,
        -715.8665161132813,
        1.0
      ],
      "name": "vitre"
    },
    {
      "children": [
        17
      ],
      "matrix": [
        1.0,
        0.0,
        -0.0,
        0.0,
        0.0,
        1.0,
        0.0,
        0.0,
        0.0,
        0.0,
        1.0,
        0.0,
        -735.3658447265625,
        -715.8665161132813,
        1.2540283203125,
        1.0
      ],
      "name": "Object_16"
    },
    {
      "mesh": 4,
      "name": "vitre_BATI.MENUISERIE_VITRE_0"
    }
  ],
  "samplers": [
    {
      "magFilter": 9729,
      "minFilter": 9987,
      "wrapS": 10497,
      "wrapT": 10497
    }
  ],
  "scene": 0,
  "scenes": [
    {
      "name": "Sketchfab_Scene",
      "nodes": [
        0
      ]
    }
  ],
  "textures": [
    {
      "sampler": 0,
      "source": 0
    },
    {
      "sampler": 0,
      "source": 1
    },
    {
      "sampler": 0,
      "source": 2
    },
    {
      "sampler": 0,
      "source": 3
    }
  ]
}
